<mxfile host="app.diagrams.net" modified="2023-05-21T17:37:26.241Z" agent="Mozilla/5.0 (Windows NT 10.0; Win64; x64) AppleWebKit/537.36 (KHTML, like Gecko) Chrome/113.0.0.0 Safari/537.36" etag="8a3PpymUi_3IFTl2RmD8" version="21.3.2" type="device">
  <diagram name="Page-1" id="2YBvvXClWsGukQMizWep">
    <mxGraphModel dx="2085" dy="684" grid="1" gridSize="10" guides="1" tooltips="1" connect="1" arrows="1" fold="1" page="1" pageScale="1" pageWidth="850" pageHeight="1100" math="0" shadow="0">
      <root>
        <mxCell id="0" />
        <mxCell id="1" parent="0" />
        <mxCell id="aM9ryv3xv72pqoxQDRHE-1" value="c:Controller" style="shape=umlLifeline;perimeter=lifelinePerimeter;whiteSpace=wrap;html=1;container=0;dropTarget=0;collapsible=0;recursiveResize=0;outlineConnect=0;portConstraint=eastwest;newEdgeStyle={&quot;edgeStyle&quot;:&quot;elbowEdgeStyle&quot;,&quot;elbow&quot;:&quot;vertical&quot;,&quot;curved&quot;:0,&quot;rounded&quot;:0};" parent="1" vertex="1">
          <mxGeometry x="100" y="40" width="100" height="490" as="geometry" />
        </mxCell>
        <mxCell id="aM9ryv3xv72pqoxQDRHE-2" value="" style="html=1;points=[];perimeter=orthogonalPerimeter;outlineConnect=0;targetShapes=umlLifeline;portConstraint=eastwest;newEdgeStyle={&quot;edgeStyle&quot;:&quot;elbowEdgeStyle&quot;,&quot;elbow&quot;:&quot;vertical&quot;,&quot;curved&quot;:0,&quot;rounded&quot;:0};" parent="aM9ryv3xv72pqoxQDRHE-1" vertex="1">
          <mxGeometry x="45" y="50" width="10" height="420" as="geometry" />
        </mxCell>
        <mxCell id="aM9ryv3xv72pqoxQDRHE-3" value="gameLoop()" style="html=1;verticalAlign=bottom;startArrow=oval;endArrow=block;startSize=8;edgeStyle=elbowEdgeStyle;elbow=vertical;curved=0;rounded=0;" parent="aM9ryv3xv72pqoxQDRHE-1" target="aM9ryv3xv72pqoxQDRHE-2" edge="1">
          <mxGeometry relative="1" as="geometry">
            <mxPoint x="-80" y="60" as="sourcePoint" />
            <Array as="points">
              <mxPoint x="-17" y="60" />
            </Array>
          </mxGeometry>
        </mxCell>
        <mxCell id="aM9ryv3xv72pqoxQDRHE-5" value="g:GameView" style="shape=umlLifeline;perimeter=lifelinePerimeter;whiteSpace=wrap;html=1;container=0;dropTarget=0;collapsible=0;recursiveResize=0;outlineConnect=0;portConstraint=eastwest;newEdgeStyle={&quot;edgeStyle&quot;:&quot;elbowEdgeStyle&quot;,&quot;elbow&quot;:&quot;vertical&quot;,&quot;curved&quot;:0,&quot;rounded&quot;:0};" parent="1" vertex="1">
          <mxGeometry x="255" y="40" width="100" height="170" as="geometry" />
        </mxCell>
        <mxCell id="aM9ryv3xv72pqoxQDRHE-6" value="" style="html=1;points=[];perimeter=orthogonalPerimeter;outlineConnect=0;targetShapes=umlLifeline;portConstraint=eastwest;newEdgeStyle={&quot;edgeStyle&quot;:&quot;elbowEdgeStyle&quot;,&quot;elbow&quot;:&quot;vertical&quot;,&quot;curved&quot;:0,&quot;rounded&quot;:0};" parent="aM9ryv3xv72pqoxQDRHE-5" vertex="1">
          <mxGeometry x="45" y="100" width="10" height="60" as="geometry" />
        </mxCell>
        <mxCell id="aM9ryv3xv72pqoxQDRHE-7" value="repaint()" style="html=1;verticalAlign=bottom;endArrow=block;edgeStyle=elbowEdgeStyle;elbow=vertical;curved=0;rounded=0;" parent="1" source="aM9ryv3xv72pqoxQDRHE-2" target="aM9ryv3xv72pqoxQDRHE-6" edge="1">
          <mxGeometry y="-10" relative="1" as="geometry">
            <mxPoint x="195" y="130" as="sourcePoint" />
            <Array as="points">
              <mxPoint x="200" y="140" />
              <mxPoint x="230" y="160" />
              <mxPoint x="190" y="130" />
            </Array>
            <mxPoint as="offset" />
          </mxGeometry>
        </mxCell>
        <mxCell id="aM9ryv3xv72pqoxQDRHE-8" value="" style="html=1;verticalAlign=bottom;endArrow=open;dashed=1;endSize=8;edgeStyle=elbowEdgeStyle;elbow=vertical;curved=0;rounded=0;" parent="1" source="aM9ryv3xv72pqoxQDRHE-6" target="aM9ryv3xv72pqoxQDRHE-2" edge="1">
          <mxGeometry relative="1" as="geometry">
            <mxPoint x="195" y="205" as="targetPoint" />
            <Array as="points">
              <mxPoint x="190" y="200" />
              <mxPoint x="210" y="190" />
              <mxPoint x="180" y="180" />
            </Array>
          </mxGeometry>
        </mxCell>
        <mxCell id="RtVYyTiSSM95ih-wjU4m-2" value="drawloop" style="shape=umlFrame;whiteSpace=wrap;html=1;pointerEvents=0;width=180;height=20;" parent="1" vertex="1">
          <mxGeometry x="-90" width="1060" height="540" as="geometry" />
        </mxCell>
        <mxCell id="RtVYyTiSSM95ih-wjU4m-4" value="[windowOption==game]" style="text;html=1;strokeColor=none;fillColor=none;align=center;verticalAlign=middle;whiteSpace=wrap;rounded=0;" parent="1" vertex="1">
          <mxGeometry x="50" y="165" width="50" height="30" as="geometry" />
        </mxCell>
        <mxCell id="RtVYyTiSSM95ih-wjU4m-5" value="e:EndGameView" style="shape=umlLifeline;perimeter=lifelinePerimeter;whiteSpace=wrap;html=1;container=0;dropTarget=0;collapsible=0;recursiveResize=0;outlineConnect=0;portConstraint=eastwest;newEdgeStyle={&quot;edgeStyle&quot;:&quot;elbowEdgeStyle&quot;,&quot;elbow&quot;:&quot;vertical&quot;,&quot;curved&quot;:0,&quot;rounded&quot;:0};" parent="1" vertex="1">
          <mxGeometry x="360" y="40" width="100" height="250" as="geometry" />
        </mxCell>
        <mxCell id="RtVYyTiSSM95ih-wjU4m-6" value="" style="html=1;points=[];perimeter=orthogonalPerimeter;outlineConnect=0;targetShapes=umlLifeline;portConstraint=eastwest;newEdgeStyle={&quot;edgeStyle&quot;:&quot;elbowEdgeStyle&quot;,&quot;elbow&quot;:&quot;vertical&quot;,&quot;curved&quot;:0,&quot;rounded&quot;:0};" parent="RtVYyTiSSM95ih-wjU4m-5" vertex="1">
          <mxGeometry x="45" y="175" width="10" height="65" as="geometry" />
        </mxCell>
        <mxCell id="RtVYyTiSSM95ih-wjU4m-7" value="repaint" style="html=1;verticalAlign=bottom;endArrow=block;edgeStyle=elbowEdgeStyle;elbow=vertical;curved=0;rounded=0;" parent="1" target="RtVYyTiSSM95ih-wjU4m-6" edge="1">
          <mxGeometry x="0.098" y="-10" relative="1" as="geometry">
            <mxPoint x="150" y="220" as="sourcePoint" />
            <Array as="points">
              <mxPoint x="220" y="220" />
              <mxPoint x="370" y="230" />
              <mxPoint x="330" y="220" />
              <mxPoint x="225" y="214.5" />
              <mxPoint x="185" y="184.5" />
            </Array>
            <mxPoint x="280" y="214.5" as="targetPoint" />
            <mxPoint as="offset" />
          </mxGeometry>
        </mxCell>
        <mxCell id="RtVYyTiSSM95ih-wjU4m-8" value="" style="html=1;verticalAlign=bottom;endArrow=open;dashed=1;endSize=8;edgeStyle=elbowEdgeStyle;elbow=vertical;curved=0;rounded=0;" parent="1" source="RtVYyTiSSM95ih-wjU4m-5" edge="1">
          <mxGeometry relative="1" as="geometry">
            <mxPoint x="150" y="280" as="targetPoint" />
            <Array as="points">
              <mxPoint x="260" y="280" />
              <mxPoint x="230" y="280" />
              <mxPoint x="270" y="270" />
              <mxPoint x="175" y="240" />
            </Array>
            <mxPoint x="280" y="240" as="sourcePoint" />
          </mxGeometry>
        </mxCell>
        <mxCell id="RtVYyTiSSM95ih-wjU4m-9" value="[windowOption==end]" style="text;html=1;strokeColor=none;fillColor=none;align=center;verticalAlign=middle;whiteSpace=wrap;rounded=0;" parent="1" vertex="1">
          <mxGeometry x="40" y="225" width="60" height="30" as="geometry" />
        </mxCell>
        <mxCell id="RtVYyTiSSM95ih-wjU4m-11" value="n:NewGameView" style="shape=umlLifeline;perimeter=lifelinePerimeter;whiteSpace=wrap;html=1;container=0;dropTarget=0;collapsible=0;recursiveResize=0;outlineConnect=0;portConstraint=eastwest;newEdgeStyle={&quot;edgeStyle&quot;:&quot;elbowEdgeStyle&quot;,&quot;elbow&quot;:&quot;vertical&quot;,&quot;curved&quot;:0,&quot;rounded&quot;:0};" parent="1" vertex="1">
          <mxGeometry x="470" y="40" width="100" height="320" as="geometry" />
        </mxCell>
        <mxCell id="RtVYyTiSSM95ih-wjU4m-12" value="" style="html=1;points=[];perimeter=orthogonalPerimeter;outlineConnect=0;targetShapes=umlLifeline;portConstraint=eastwest;newEdgeStyle={&quot;edgeStyle&quot;:&quot;elbowEdgeStyle&quot;,&quot;elbow&quot;:&quot;vertical&quot;,&quot;curved&quot;:0,&quot;rounded&quot;:0};" parent="RtVYyTiSSM95ih-wjU4m-11" vertex="1">
          <mxGeometry x="45" y="250" width="10" height="70" as="geometry" />
        </mxCell>
        <mxCell id="RtVYyTiSSM95ih-wjU4m-13" value="repaint" style="html=1;verticalAlign=bottom;endArrow=block;edgeStyle=elbowEdgeStyle;elbow=vertical;curved=0;rounded=0;" parent="1" target="RtVYyTiSSM95ih-wjU4m-12" edge="1">
          <mxGeometry x="-0.0137" y="-10" relative="1" as="geometry">
            <mxPoint x="150" y="290" as="sourcePoint" />
            <Array as="points">
              <mxPoint x="470" y="290" />
              <mxPoint x="310" y="310" />
              <mxPoint x="350" y="300" />
              <mxPoint x="330" y="290" />
              <mxPoint x="225" y="284.5" />
              <mxPoint x="185" y="254.5" />
            </Array>
            <mxPoint x="405" y="290" as="targetPoint" />
            <mxPoint as="offset" />
          </mxGeometry>
        </mxCell>
        <mxCell id="RtVYyTiSSM95ih-wjU4m-14" value="" style="html=1;verticalAlign=bottom;endArrow=open;dashed=1;endSize=8;edgeStyle=elbowEdgeStyle;elbow=vertical;curved=0;rounded=0;" parent="1" source="RtVYyTiSSM95ih-wjU4m-12" edge="1">
          <mxGeometry relative="1" as="geometry">
            <mxPoint x="150" y="350" as="targetPoint" />
            <Array as="points">
              <mxPoint x="310" y="350" />
              <mxPoint x="330" y="320" />
              <mxPoint x="350" y="330" />
              <mxPoint x="175" y="310" />
            </Array>
            <mxPoint x="410" y="310" as="sourcePoint" />
          </mxGeometry>
        </mxCell>
        <mxCell id="RtVYyTiSSM95ih-wjU4m-15" value="[windowOption==newgame]" style="text;html=1;strokeColor=none;fillColor=none;align=center;verticalAlign=middle;whiteSpace=wrap;rounded=0;" parent="1" vertex="1">
          <mxGeometry x="40" y="300" width="60" height="30" as="geometry" />
        </mxCell>
        <mxCell id="RtVYyTiSSM95ih-wjU4m-18" value="m:MenuView" style="shape=umlLifeline;perimeter=lifelinePerimeter;whiteSpace=wrap;html=1;container=0;dropTarget=0;collapsible=0;recursiveResize=0;outlineConnect=0;portConstraint=eastwest;newEdgeStyle={&quot;edgeStyle&quot;:&quot;elbowEdgeStyle&quot;,&quot;elbow&quot;:&quot;vertical&quot;,&quot;curved&quot;:0,&quot;rounded&quot;:0};" parent="1" vertex="1">
          <mxGeometry x="610" y="40" width="100" height="430" as="geometry" />
        </mxCell>
        <mxCell id="RtVYyTiSSM95ih-wjU4m-19" value="" style="html=1;points=[];perimeter=orthogonalPerimeter;outlineConnect=0;targetShapes=umlLifeline;portConstraint=eastwest;newEdgeStyle={&quot;edgeStyle&quot;:&quot;elbowEdgeStyle&quot;,&quot;elbow&quot;:&quot;vertical&quot;,&quot;curved&quot;:0,&quot;rounded&quot;:0};" parent="RtVYyTiSSM95ih-wjU4m-18" vertex="1">
          <mxGeometry x="45" y="330" width="10" height="100" as="geometry" />
        </mxCell>
        <mxCell id="RtVYyTiSSM95ih-wjU4m-21" value="repaint" style="html=1;verticalAlign=bottom;endArrow=block;edgeStyle=elbowEdgeStyle;elbow=vertical;curved=0;rounded=0;" parent="1" target="RtVYyTiSSM95ih-wjU4m-19" edge="1">
          <mxGeometry x="0.0297" y="-10" relative="1" as="geometry">
            <mxPoint x="150" y="370" as="sourcePoint" />
            <Array as="points">
              <mxPoint x="440" y="370" />
              <mxPoint x="470" y="370" />
              <mxPoint x="480" y="390" />
              <mxPoint x="330" y="370" />
              <mxPoint x="225" y="364.5" />
              <mxPoint x="185" y="334.5" />
            </Array>
            <mxPoint x="515" y="370" as="targetPoint" />
            <mxPoint as="offset" />
          </mxGeometry>
        </mxCell>
        <mxCell id="RtVYyTiSSM95ih-wjU4m-22" value="" style="html=1;verticalAlign=bottom;endArrow=open;dashed=1;endSize=8;edgeStyle=elbowEdgeStyle;elbow=vertical;curved=0;rounded=0;" parent="1" source="RtVYyTiSSM95ih-wjU4m-19" target="aM9ryv3xv72pqoxQDRHE-2" edge="1">
          <mxGeometry relative="1" as="geometry">
            <mxPoint x="150" y="400" as="targetPoint" />
            <Array as="points">
              <mxPoint x="460" y="460" />
              <mxPoint x="390" y="420" />
              <mxPoint x="360" y="400" />
              <mxPoint x="550" y="400" />
              <mxPoint x="175" y="390" />
            </Array>
            <mxPoint x="515" y="390" as="sourcePoint" />
          </mxGeometry>
        </mxCell>
        <mxCell id="RtVYyTiSSM95ih-wjU4m-24" value="[windowOption==menu]" style="text;html=1;strokeColor=none;fillColor=none;align=center;verticalAlign=middle;whiteSpace=wrap;rounded=0;" parent="1" vertex="1">
          <mxGeometry x="40" y="370" width="60" height="30" as="geometry" />
        </mxCell>
        <mxCell id="RtVYyTiSSM95ih-wjU4m-36" value="[while (running)]" style="text;html=1;strokeColor=none;fillColor=none;align=center;verticalAlign=middle;whiteSpace=wrap;rounded=0;" parent="1" vertex="1">
          <mxGeometry x="-40" y="110" width="170" height="20" as="geometry" />
        </mxCell>
        <mxCell id="JXOX3uz73Wwaf6WbtP9--2" value="loop" style="shape=umlFrame;whiteSpace=wrap;html=1;pointerEvents=0;width=40;height=15;" parent="1" vertex="1">
          <mxGeometry x="-80" y="110" width="1020" height="380" as="geometry" />
        </mxCell>
        <mxCell id="JXOX3uz73Wwaf6WbtP9--3" value="alt" style="shape=umlFrame;whiteSpace=wrap;html=1;pointerEvents=0;" parent="1" vertex="1">
          <mxGeometry x="-70" y="130" width="990" height="350" as="geometry" />
        </mxCell>
        <mxCell id="JXOX3uz73Wwaf6WbtP9--4" value="[windowOption==game]" style="text;html=1;strokeColor=none;fillColor=none;align=center;verticalAlign=middle;whiteSpace=wrap;rounded=0;" parent="1" vertex="1">
          <mxGeometry x="50" y="165" width="50" height="30" as="geometry" />
        </mxCell>
        <mxCell id="JXOX3uz73Wwaf6WbtP9--5" value="[windowOption==end]" style="text;html=1;strokeColor=none;fillColor=none;align=center;verticalAlign=middle;whiteSpace=wrap;rounded=0;" parent="1" vertex="1">
          <mxGeometry x="40" y="225" width="60" height="30" as="geometry" />
        </mxCell>
        <mxCell id="qFWBdqJI85hizo8IoVQo-1" value="System" style="shape=umlActor;verticalLabelPosition=bottom;verticalAlign=top;html=1;outlineConnect=0;" parent="1" vertex="1">
          <mxGeometry x="-30" y="30" width="30" height="60" as="geometry" />
        </mxCell>
        <mxCell id="qFWBdqJI85hizo8IoVQo-2" value="" style="html=1;verticalAlign=bottom;endArrow=open;dashed=1;endSize=8;edgeStyle=elbowEdgeStyle;elbow=vertical;curved=0;rounded=0;" parent="1" edge="1">
          <mxGeometry relative="1" as="geometry">
            <mxPoint y="500" as="targetPoint" />
            <Array as="points">
              <mxPoint y="500" />
              <mxPoint x="45" y="500" />
            </Array>
            <mxPoint x="150" y="500" as="sourcePoint" />
          </mxGeometry>
        </mxCell>
        <mxCell id="DYrwFmWDbxDsm342zLnB-1" value="d:Drawable" style="shape=umlLifeline;perimeter=lifelinePerimeter;whiteSpace=wrap;html=1;container=0;dropTarget=0;collapsible=0;recursiveResize=0;outlineConnect=0;portConstraint=eastwest;newEdgeStyle={&quot;edgeStyle&quot;:&quot;elbowEdgeStyle&quot;,&quot;elbow&quot;:&quot;vertical&quot;,&quot;curved&quot;:0,&quot;rounded&quot;:0};" parent="1" vertex="1">
          <mxGeometry x="800" y="50" width="100" height="470" as="geometry" />
        </mxCell>
        <mxCell id="DYrwFmWDbxDsm342zLnB-2" value="" style="html=1;points=[];perimeter=orthogonalPerimeter;outlineConnect=0;targetShapes=umlLifeline;portConstraint=eastwest;newEdgeStyle={&quot;edgeStyle&quot;:&quot;elbowEdgeStyle&quot;,&quot;elbow&quot;:&quot;vertical&quot;,&quot;curved&quot;:0,&quot;rounded&quot;:0};" parent="DYrwFmWDbxDsm342zLnB-1" vertex="1">
          <mxGeometry x="45" y="110" width="10" height="20" as="geometry" />
        </mxCell>
        <mxCell id="DYrwFmWDbxDsm342zLnB-3" value="" style="html=1;points=[];perimeter=orthogonalPerimeter;outlineConnect=0;targetShapes=umlLifeline;portConstraint=eastwest;newEdgeStyle={&quot;edgeStyle&quot;:&quot;elbowEdgeStyle&quot;,&quot;elbow&quot;:&quot;vertical&quot;,&quot;curved&quot;:0,&quot;rounded&quot;:0};" parent="DYrwFmWDbxDsm342zLnB-1" vertex="1">
          <mxGeometry x="45" y="187.5" width="10" height="22.5" as="geometry" />
        </mxCell>
        <mxCell id="DYrwFmWDbxDsm342zLnB-4" value="" style="html=1;points=[];perimeter=orthogonalPerimeter;outlineConnect=0;targetShapes=umlLifeline;portConstraint=eastwest;newEdgeStyle={&quot;edgeStyle&quot;:&quot;elbowEdgeStyle&quot;,&quot;elbow&quot;:&quot;vertical&quot;,&quot;curved&quot;:0,&quot;rounded&quot;:0};" parent="DYrwFmWDbxDsm342zLnB-1" vertex="1">
          <mxGeometry x="45" y="260" width="10" height="20" as="geometry" />
        </mxCell>
        <mxCell id="DYrwFmWDbxDsm342zLnB-5" value="" style="html=1;points=[];perimeter=orthogonalPerimeter;outlineConnect=0;targetShapes=umlLifeline;portConstraint=eastwest;newEdgeStyle={&quot;edgeStyle&quot;:&quot;elbowEdgeStyle&quot;,&quot;elbow&quot;:&quot;vertical&quot;,&quot;curved&quot;:0,&quot;rounded&quot;:0};" parent="DYrwFmWDbxDsm342zLnB-1" vertex="1">
          <mxGeometry x="45" y="340" width="10" height="40" as="geometry" />
        </mxCell>
        <mxCell id="DYrwFmWDbxDsm342zLnB-6" value="loop" style="shape=umlFrame;whiteSpace=wrap;html=1;pointerEvents=0;width=50;height=15;" parent="1" vertex="1">
          <mxGeometry x="160" y="150" width="750" height="40" as="geometry" />
        </mxCell>
        <mxCell id="DYrwFmWDbxDsm342zLnB-7" value="loop" style="shape=umlFrame;whiteSpace=wrap;html=1;pointerEvents=0;width=50;height=15;" parent="1" vertex="1">
          <mxGeometry x="180" y="230" width="730" height="40" as="geometry" />
        </mxCell>
        <mxCell id="DYrwFmWDbxDsm342zLnB-8" value="loop" style="shape=umlFrame;whiteSpace=wrap;html=1;pointerEvents=0;width=40;height=15;" parent="1" vertex="1">
          <mxGeometry x="360" y="300" width="550" height="40" as="geometry" />
        </mxCell>
        <mxCell id="DYrwFmWDbxDsm342zLnB-9" value="loop" style="shape=umlFrame;whiteSpace=wrap;html=1;pointerEvents=0;width=40;height=15;" parent="1" vertex="1">
          <mxGeometry x="450" y="380" width="460" height="70" as="geometry" />
        </mxCell>
        <mxCell id="DYrwFmWDbxDsm342zLnB-10" value="[foreach d in drawList]" style="text;html=1;strokeColor=none;fillColor=none;align=center;verticalAlign=middle;whiteSpace=wrap;rounded=0;" parent="1" vertex="1">
          <mxGeometry x="160" y="165" width="130" height="30" as="geometry" />
        </mxCell>
        <mxCell id="DYrwFmWDbxDsm342zLnB-11" value="[foreach d in drawList]" style="text;html=1;strokeColor=none;fillColor=none;align=center;verticalAlign=middle;whiteSpace=wrap;rounded=0;" parent="1" vertex="1">
          <mxGeometry x="240" y="235" width="130" height="30" as="geometry" />
        </mxCell>
        <mxCell id="DYrwFmWDbxDsm342zLnB-12" value="[foreach d in drawList]" style="text;html=1;strokeColor=none;fillColor=none;align=center;verticalAlign=middle;whiteSpace=wrap;rounded=0;" parent="1" vertex="1">
          <mxGeometry x="380" y="310" width="140" height="30" as="geometry" />
        </mxCell>
        <mxCell id="DYrwFmWDbxDsm342zLnB-13" value="[foreach d in drawList]" style="text;html=1;strokeColor=none;fillColor=none;align=center;verticalAlign=middle;whiteSpace=wrap;rounded=0;" parent="1" vertex="1">
          <mxGeometry x="470" y="400" width="150" height="30" as="geometry" />
        </mxCell>
        <mxCell id="DYrwFmWDbxDsm342zLnB-14" value="repaint()" style="html=1;verticalAlign=bottom;endArrow=block;edgeStyle=elbowEdgeStyle;elbow=vertical;curved=0;rounded=0;" parent="1" edge="1">
          <mxGeometry x="0.0526" relative="1" as="geometry">
            <mxPoint x="660" y="399" as="sourcePoint" />
            <Array as="points">
              <mxPoint x="760" y="399" />
              <mxPoint x="730" y="383.5" />
              <mxPoint x="690" y="353.5" />
            </Array>
            <mxPoint x="850" y="399" as="targetPoint" />
            <mxPoint as="offset" />
          </mxGeometry>
        </mxCell>
        <mxCell id="DYrwFmWDbxDsm342zLnB-15" value="" style="html=1;verticalAlign=bottom;endArrow=open;dashed=1;endSize=8;edgeStyle=elbowEdgeStyle;elbow=vertical;curved=0;rounded=0;" parent="1" target="RtVYyTiSSM95ih-wjU4m-19" edge="1">
          <mxGeometry relative="1" as="geometry">
            <mxPoint x="720" y="410" as="targetPoint" />
            <Array as="points">
              <mxPoint x="775" y="410" />
              <mxPoint x="745" y="400" />
            </Array>
            <mxPoint x="850" y="410" as="sourcePoint" />
          </mxGeometry>
        </mxCell>
        <mxCell id="DYrwFmWDbxDsm342zLnB-17" value="repaint()" style="html=1;verticalAlign=bottom;endArrow=block;edgeStyle=elbowEdgeStyle;elbow=vertical;curved=0;rounded=0;" parent="1" target="DYrwFmWDbxDsm342zLnB-4" edge="1">
          <mxGeometry x="0.0746" y="-5" relative="1" as="geometry">
            <mxPoint x="510" y="314.5" as="sourcePoint" />
            <Array as="points">
              <mxPoint x="610" y="314.5" />
              <mxPoint x="580" y="299" />
              <mxPoint x="540" y="269" />
            </Array>
            <mxPoint x="700" y="314.5" as="targetPoint" />
            <mxPoint y="1" as="offset" />
          </mxGeometry>
        </mxCell>
        <mxCell id="DYrwFmWDbxDsm342zLnB-18" value="" style="html=1;verticalAlign=bottom;endArrow=open;dashed=1;endSize=8;edgeStyle=elbowEdgeStyle;elbow=vertical;curved=0;rounded=0;entryX=1;entryY=0.5;entryDx=0;entryDy=0;" parent="1" target="DYrwFmWDbxDsm342zLnB-12" edge="1">
          <mxGeometry relative="1" as="geometry">
            <mxPoint x="530" y="325" as="targetPoint" />
            <Array as="points">
              <mxPoint x="775" y="324.5" />
              <mxPoint x="745" y="314.5" />
            </Array>
            <mxPoint x="850" y="324.5" as="sourcePoint" />
          </mxGeometry>
        </mxCell>
        <mxCell id="DYrwFmWDbxDsm342zLnB-19" value="repaint()" style="html=1;verticalAlign=bottom;endArrow=block;edgeStyle=elbowEdgeStyle;elbow=vertical;curved=0;rounded=0;" parent="1" target="DYrwFmWDbxDsm342zLnB-3" edge="1">
          <mxGeometry x="0.0746" y="-5" relative="1" as="geometry">
            <mxPoint x="410" y="239.5" as="sourcePoint" />
            <Array as="points">
              <mxPoint x="510" y="239.5" />
              <mxPoint x="480" y="224" />
              <mxPoint x="440" y="194" />
            </Array>
            <mxPoint x="745" y="240" as="targetPoint" />
            <mxPoint y="1" as="offset" />
          </mxGeometry>
        </mxCell>
        <mxCell id="DYrwFmWDbxDsm342zLnB-20" value="" style="html=1;verticalAlign=bottom;endArrow=open;dashed=1;endSize=8;edgeStyle=elbowEdgeStyle;elbow=vertical;curved=0;rounded=0;" parent="1" target="RtVYyTiSSM95ih-wjU4m-6" edge="1">
          <mxGeometry relative="1" as="geometry">
            <mxPoint x="520" y="255.5" as="targetPoint" />
            <Array as="points">
              <mxPoint x="775" y="255" />
              <mxPoint x="745" y="245" />
            </Array>
            <mxPoint x="850" y="255" as="sourcePoint" />
          </mxGeometry>
        </mxCell>
        <mxCell id="DYrwFmWDbxDsm342zLnB-21" value="repaint()" style="html=1;verticalAlign=bottom;endArrow=block;edgeStyle=elbowEdgeStyle;elbow=vertical;curved=0;rounded=0;" parent="1" target="DYrwFmWDbxDsm342zLnB-2" edge="1">
          <mxGeometry x="0.0022" y="-10" relative="1" as="geometry">
            <mxPoint x="305" y="164" as="sourcePoint" />
            <Array as="points">
              <mxPoint x="350" y="164" />
              <mxPoint x="380" y="184" />
              <mxPoint x="340" y="154" />
            </Array>
            <mxPoint x="450" y="164" as="targetPoint" />
            <mxPoint as="offset" />
          </mxGeometry>
        </mxCell>
        <mxCell id="DYrwFmWDbxDsm342zLnB-22" value="" style="html=1;verticalAlign=bottom;endArrow=open;dashed=1;endSize=8;edgeStyle=elbowEdgeStyle;elbow=vertical;curved=0;rounded=0;" parent="1" source="DYrwFmWDbxDsm342zLnB-2" edge="1">
          <mxGeometry relative="1" as="geometry">
            <mxPoint x="305" y="179.5" as="targetPoint" />
            <Array as="points">
              <mxPoint x="700" y="180" />
              <mxPoint x="820" y="170" />
              <mxPoint x="340" y="179.5" />
              <mxPoint x="360" y="169.5" />
              <mxPoint x="330" y="159.5" />
            </Array>
            <mxPoint x="450" y="179.5" as="sourcePoint" />
          </mxGeometry>
        </mxCell>
        <mxCell id="J3b5RZv5InC74DC24SQa-3" value="" style="endArrow=none;dashed=1;html=1;rounded=0;exitX=-0.001;exitY=0.23;exitDx=0;exitDy=0;exitPerimeter=0;entryX=1.004;entryY=0.219;entryDx=0;entryDy=0;entryPerimeter=0;" edge="1" parent="1" source="JXOX3uz73Wwaf6WbtP9--3" target="JXOX3uz73Wwaf6WbtP9--3">
          <mxGeometry width="50" height="50" relative="1" as="geometry">
            <mxPoint x="390" y="330" as="sourcePoint" />
            <mxPoint x="440" y="280" as="targetPoint" />
          </mxGeometry>
        </mxCell>
        <mxCell id="J3b5RZv5InC74DC24SQa-4" value="" style="endArrow=none;dashed=1;html=1;rounded=0;exitX=-0.001;exitY=0.23;exitDx=0;exitDy=0;exitPerimeter=0;entryX=1.004;entryY=0.219;entryDx=0;entryDy=0;entryPerimeter=0;" edge="1" parent="1">
          <mxGeometry width="50" height="50" relative="1" as="geometry">
            <mxPoint x="-72" y="287" as="sourcePoint" />
            <mxPoint x="923" y="283" as="targetPoint" />
          </mxGeometry>
        </mxCell>
        <mxCell id="J3b5RZv5InC74DC24SQa-5" value="" style="endArrow=none;dashed=1;html=1;rounded=0;exitX=0.001;exitY=0.671;exitDx=0;exitDy=0;exitPerimeter=0;entryX=1.004;entryY=0.219;entryDx=0;entryDy=0;entryPerimeter=0;" edge="1" parent="1" source="JXOX3uz73Wwaf6WbtP9--3">
          <mxGeometry width="50" height="50" relative="1" as="geometry">
            <mxPoint x="-57.5" y="364" as="sourcePoint" />
            <mxPoint x="937.5" y="360" as="targetPoint" />
          </mxGeometry>
        </mxCell>
        <mxCell id="J3b5RZv5InC74DC24SQa-6" value="alt" style="shape=umlFrame;whiteSpace=wrap;html=1;pointerEvents=0;" vertex="1" parent="1">
          <mxGeometry x="-70" y="130" width="990" height="350" as="geometry" />
        </mxCell>
        <mxCell id="J3b5RZv5InC74DC24SQa-7" value="[windowOption==game]" style="text;html=1;strokeColor=none;fillColor=none;align=center;verticalAlign=middle;whiteSpace=wrap;rounded=0;" vertex="1" parent="1">
          <mxGeometry x="50" y="165" width="50" height="30" as="geometry" />
        </mxCell>
        <mxCell id="J3b5RZv5InC74DC24SQa-8" value="[windowOption==end]" style="text;html=1;strokeColor=none;fillColor=none;align=center;verticalAlign=middle;whiteSpace=wrap;rounded=0;" vertex="1" parent="1">
          <mxGeometry x="40" y="225" width="60" height="30" as="geometry" />
        </mxCell>
        <mxCell id="J3b5RZv5InC74DC24SQa-9" value="[windowOption==newgame]" style="text;html=1;strokeColor=none;fillColor=none;align=center;verticalAlign=middle;whiteSpace=wrap;rounded=0;" vertex="1" parent="1">
          <mxGeometry x="40" y="300" width="60" height="30" as="geometry" />
        </mxCell>
        <mxCell id="J3b5RZv5InC74DC24SQa-10" value="[windowOption==menu]" style="text;html=1;strokeColor=none;fillColor=none;align=center;verticalAlign=middle;whiteSpace=wrap;rounded=0;" vertex="1" parent="1">
          <mxGeometry x="40" y="370" width="60" height="30" as="geometry" />
        </mxCell>
      </root>
    </mxGraphModel>
  </diagram>
</mxfile>
